<svg width="322" height="232" viewBox="0 0 322 232" fill="none" xmlns="http://www.w3.org/2000/svg">
<path d="M33.3042 184.511V190.256H6.7255V204.425H29.9414V210.17H6.7255V225.744H33.3042V231.488H0V184.511H33.3042Z" fill="white"/>
<path d="M55.8931 204.234H84.0885V210.808H55.8931V204.234Z" fill="white"/>
<path d="M112.728 219.808C115.833 223.51 120.295 226.127 124.563 226.191C130.771 226.191 135.104 222.872 135.168 218.212C135.233 208.255 109.43 212.914 109.56 196.766C109.624 189.171 116.221 183.937 125.468 184.001C131.094 184.064 136.72 187.064 140.212 191.277L135.233 195.107C132.711 191.979 129.089 189.809 125.468 189.745C120.101 189.745 116.285 192.681 116.285 196.83C116.221 206.979 141.958 202.894 141.894 218.276C141.829 226.382 134.651 231.999 124.498 231.935C118.225 231.871 111.629 228.488 107.684 223.638L112.728 219.808Z" fill="white"/>
<path d="M182.121 184.511V190.256H167.958V231.488H161.233V190.256H147.006V184.511H182.121Z" fill="white"/>
<path d="M206.631 226.191C216.719 226.191 223.574 218.85 223.574 208C223.574 197.149 216.719 189.809 206.631 189.809C196.478 189.809 189.688 197.149 189.688 208C189.688 218.85 196.478 226.191 206.631 226.191ZM182.898 208C182.898 193.894 192.727 184.001 206.631 184.001C220.47 184.001 230.299 193.894 230.299 208C230.299 222.106 220.47 231.999 206.631 231.999C192.727 231.999 182.898 222.106 182.898 208Z" fill="white"/>
<path d="M258.532 231.999C244.757 231.999 235.057 222.106 235.057 208C235.057 193.894 244.757 183.937 258.532 184.001C265.063 184.001 270.948 186.745 275.151 191.022L270.754 195.298C267.844 191.915 263.317 189.809 258.532 189.809C248.573 189.809 241.847 197.085 241.847 208C241.847 218.85 248.573 226.191 258.532 226.191C263.64 226.191 267.779 223.957 270.495 220.893L275.151 224.978C270.948 229.254 265.387 232.063 258.532 231.999Z" fill="white"/>
<path d="M321.612 184.447L302.729 205.128L322 231.488H313.658L298.073 210.17L289.666 219.553V231.488H282.94V184.575H289.666V209.468L312.494 184.447H321.612Z" fill="white"/>
<path d="M255.269 88.5966L276.144 10.84C277.857 4.45661 271.943 -1.39972 265.497 0.296551L186.975 20.9684C180.528 22.6646 178.391 30.6426 183.119 35.3245L189.573 41.7156C173.035 56.5825 149.752 67.0663 127.258 67.0164C103.275 66.9631 80.7073 57.6643 63.7066 40.8293C52.5086 29.7405 44.6175 16.258 40.5166 1.55984C39.4183 32.123 50.6719 63.0903 74.2907 86.4789C118.998 130.75 191.133 131.187 235.995 87.6854L240.755 92.3988C245.494 97.1017 253.556 94.9801 255.269 88.5966Z" fill="white"/>
</svg>
