<svg width="134" height="24" viewBox="0 0 134 24" fill="none" xmlns="http://www.w3.org/2000/svg">
<path d="M3.73369 24C5.2567 24 6.49135 22.7577 6.49135 21.2254C6.49135 19.693 5.2567 18.4507 3.73369 18.4507C2.21067 18.4507 0.976022 19.693 0.976022 21.2254C0.976022 22.7577 2.21067 24 3.73369 24Z" fill="white"/>
<path d="M7.10113 11.4851C4.29514 11.4851 1.76829 12.6865 0 14.6064C1.12545 13.9616 2.40286 13.618 3.73369 13.618C5.75313 13.618 7.65177 14.4094 9.07988 15.8463C10.4291 17.2039 11.1845 19.2581 11.2659 21.1646C11.2666 21.1588 11.2678 21.1531 11.2685 21.1467C11.2678 21.1729 11.2659 21.1991 11.2659 21.2254C11.2659 21.3386 11.2735 21.4506 11.2869 21.5599C11.4509 22.9341 12.6133 24 14.0236 24C15.5464 24 16.7812 22.7576 16.7812 21.2254C16.7812 15.8463 12.4473 11.4851 7.10113 11.4851Z" fill="white"/>
<path d="M10.4991 8.06622C6.95552 8.06622 3.74195 9.48456 1.38678 11.7877C1.84586 11.5062 2.32656 11.258 2.82633 11.0449C4.18132 10.4685 5.6196 10.1761 7.10113 10.1761C8.58328 10.1761 10.0216 10.4685 11.3759 11.0449C12.6839 11.6015 13.8583 12.398 14.8661 13.412C15.8739 14.426 16.6655 15.6077 17.2187 16.9236C17.7528 18.1948 18.0415 19.539 18.0777 20.924C18.0777 21.0232 18.072 21.1243 18.072 21.226C18.072 21.3277 18.0739 21.4269 18.0816 21.526C18.1922 22.9207 19.3971 24 20.8189 24C22.3417 24 23.5765 22.7576 23.5765 21.2254C23.5772 13.9577 17.7223 8.06622 10.4991 8.06622Z" fill="white"/>
<path d="M30.3725 21.1646C30.34 12.0436 22.9814 4.66016 13.9091 4.66016C9.56694 4.66016 5.6177 6.35231 2.67564 9.11606C3.38206 8.65351 4.12791 8.25367 4.91191 7.91971C6.68211 7.16608 8.56231 6.78415 10.4991 6.78415C12.4359 6.78415 14.3161 7.16608 16.0863 7.91971C17.7954 8.64712 19.3304 9.688 20.6478 11.0142C21.9653 12.3398 23.0005 13.8842 23.7234 15.6038C24.4642 17.3664 24.8431 19.237 24.8514 21.1646C24.8514 21.1851 24.852 21.2049 24.852 21.2254C24.852 21.2279 24.852 21.2305 24.852 21.2324H24.8584C24.8622 22.7614 26.0951 24 27.6161 24C29.137 24 30.3699 22.7614 30.3737 21.2324C30.3737 21.2298 30.3737 21.2273 30.3737 21.2254C30.3731 21.2049 30.3725 21.1844 30.3725 21.1646Z" fill="white"/>
<path d="M57.4374 7.01323H46.6524V12.8225H56.0725V15.1783H46.6524V21.5628H57.4374V23.9186H43.9248V4.65967H57.4374V7.01323Z" fill="white"/>
<path d="M80.7884 23.9186H77.6667L69.5322 4.65967H72.4976L79.1879 20.9085L85.5105 4.65967H88.4759L80.7884 23.9186Z" fill="white"/>
<path d="M103.852 4.65967V23.9186H101.124V4.65967H103.852Z" fill="white"/>
<path d="M117.494 4.65967H123.817C129.457 4.65967 133.446 8.6379 133.446 14.2891C133.446 19.9403 129.457 23.9186 123.817 23.9186H117.494V4.65967ZM130.745 14.2891C130.745 9.97057 127.938 7.04178 123.793 7.04178H120.224V21.5386H123.793C127.938 21.5364 130.745 18.6055 130.745 14.2891Z" fill="white"/>
</svg>
