<svg width="16" height="16" viewBox="0 0 16 16" fill="none" xmlns="http://www.w3.org/2000/svg">
<path d="M3.33326 14.58C2.83992 14.58 2.35326 14.3933 1.97992 14.02C1.61992 13.66 1.41992 13.18 1.41992 12.6667C1.41992 12.1533 1.61992 11.6733 1.97992 11.3133L10.6466 2.64667C11.3933 1.9 12.6066 1.9 13.3533 2.64667C13.7133 3.00667 13.9133 3.48667 13.9133 4C13.9133 4.51334 13.7133 4.99334 13.3533 5.35334L4.68659 14.02C4.31326 14.3933 3.82659 14.58 3.33326 14.58ZM11.9999 3.08667C11.7666 3.08667 11.5333 3.17334 11.3533 3.35334L2.68659 12.02C2.51326 12.1933 2.41992 12.42 2.41992 12.6667C2.41992 12.9133 2.51326 13.14 2.68659 13.3133C3.03992 13.6667 3.62659 13.6667 3.97992 13.3133L12.6466 4.64667C12.8199 4.47334 12.9133 4.24667 12.9133 4C12.9133 3.75334 12.8199 3.52667 12.6466 3.35334C12.4666 3.17334 12.2333 3.08667 11.9999 3.08667Z" fill="white"/>
<path d="M12.0071 6.49333C11.8805 6.49333 11.7538 6.44666 11.6538 6.34666L9.65379 4.34666C9.46046 4.15333 9.46046 3.83333 9.65379 3.64C9.84712 3.44666 10.1671 3.44666 10.3605 3.64L12.3605 5.64C12.5538 5.83333 12.5538 6.15333 12.3605 6.34666C12.2605 6.44666 12.1338 6.49333 12.0071 6.49333Z" fill="white"/>
</svg>
