<svg width="24" height="24" viewBox="0 0 24 24" fill="none" xmlns="http://www.w3.org/2000/svg">
<circle cx="12" cy="12" r="12" fill="black" fill-opacity="0.3"/>
<path d="M7.33326 18.58C6.83992 18.58 6.35326 18.3933 5.97992 18.02C5.61992 17.66 5.41992 17.18 5.41992 16.6667C5.41992 16.1533 5.61992 15.6733 5.97992 15.3133L14.6466 6.64667C15.3933 5.9 16.6066 5.9 17.3533 6.64667C17.7133 7.00667 17.9133 7.48667 17.9133 8C17.9133 8.51334 17.7133 8.99334 17.3533 9.35334L8.68659 18.02C8.31326 18.3933 7.82659 18.58 7.33326 18.58ZM15.9999 7.08667C15.7666 7.08667 15.5333 7.17334 15.3533 7.35334L6.68659 16.02C6.51326 16.1933 6.41992 16.42 6.41992 16.6667C6.41992 16.9133 6.51326 17.14 6.68659 17.3133C7.03992 17.6667 7.62659 17.6667 7.97992 17.3133L16.6466 8.64667C16.8199 8.47334 16.9133 8.24667 16.9133 8C16.9133 7.75334 16.8199 7.52667 16.6466 7.35334C16.4666 7.17334 16.2333 7.08667 15.9999 7.08667Z" fill="white"/>
<path d="M16.0071 10.4933C15.8805 10.4933 15.7538 10.4467 15.6538 10.3467L13.6538 8.34666C13.4605 8.15333 13.4605 7.83333 13.6538 7.64C13.8471 7.44666 14.1671 7.44666 14.3605 7.64L16.3605 9.64C16.5538 9.83333 16.5538 10.1533 16.3605 10.3467C16.2605 10.4467 16.1338 10.4933 16.0071 10.4933Z" fill="white"/>
<path d="M10.6667 7.66666C10.6334 7.66666 10.6067 7.65999 10.5734 7.65333L9.6667 7.38666L8.76003 7.65333C8.64003 7.68666 8.51337 7.65333 8.43337 7.56666C8.3467 7.47999 8.31337 7.35999 8.3467 7.23999L8.61337 6.33333L8.3467 5.42666C8.31337 5.30666 8.3467 5.17999 8.43337 5.09999C8.52003 5.01333 8.6467 4.97999 8.76003 5.01333L9.6667 5.27999L10.5734 5.01333C10.6934 4.97999 10.8134 5.01333 10.9 5.09999C10.9867 5.18666 11.02 5.31333 10.9867 5.42666L10.72 6.33333L10.9867 7.23999C11.02 7.35999 10.9867 7.48666 10.9 7.56666C10.84 7.63333 10.7534 7.66666 10.6667 7.66666ZM9.6667 6.70666C9.70003 6.70666 9.7267 6.71333 9.76003 6.71999L10.1734 6.83999L10.0534 6.42666C10.0334 6.36666 10.0334 6.29999 10.0534 6.23999L10.1734 5.82666L9.76003 5.94666C9.70003 5.96666 9.63337 5.96666 9.57337 5.94666L9.16003 5.82666L9.28003 6.23999C9.30003 6.29999 9.30003 6.36666 9.28003 6.42666L9.16003 6.83999L9.57337 6.71999C9.6067 6.71333 9.63337 6.70666 9.6667 6.70666Z" fill="white"/>
<path d="M7.99971 11.6667C7.96638 11.6667 7.93971 11.66 7.90638 11.6533L6.99971 11.3867L6.09304 11.6533C5.97304 11.6867 5.85304 11.6533 5.76638 11.5667C5.67971 11.48 5.64638 11.3533 5.67971 11.24L5.94638 10.3333L5.67971 9.42666C5.64638 9.30666 5.67971 9.17999 5.76638 9.09999C5.85304 9.01999 5.97971 8.97999 6.09304 9.01333L6.99971 9.27999L7.90638 9.01333C8.01971 8.97999 8.14638 9.01333 8.23304 9.09999C8.31971 9.18666 8.35304 9.31333 8.31971 9.42666L8.05304 10.3333L8.31971 11.24C8.35304 11.36 8.31971 11.4867 8.23304 11.5667C8.17304 11.6333 8.08638 11.6667 7.99971 11.6667ZM6.99971 10.7067C7.03304 10.7067 7.05971 10.7133 7.09304 10.72L7.50638 10.84L7.38638 10.4267C7.36638 10.3667 7.36638 10.3 7.38638 10.24L7.50638 9.82666L7.09304 9.94666C7.03304 9.96666 6.96638 9.96666 6.90638 9.94666L6.49304 9.82666L6.61304 10.24C6.63304 10.3 6.63304 10.3667 6.61304 10.4267L6.49304 10.84L6.90638 10.72C6.93971 10.7133 6.96638 10.7067 6.99971 10.7067Z" fill="white"/>
<path d="M17.9997 15C17.9664 15 17.9397 14.9934 17.9064 14.9867L16.9997 14.72L16.093 14.9867C15.973 15.02 15.853 14.9867 15.7664 14.9C15.6797 14.8134 15.6464 14.6867 15.6797 14.5734L15.9464 13.6667L15.6797 12.76C15.6464 12.64 15.6797 12.5134 15.7664 12.4334C15.853 12.3534 15.9797 12.3134 16.093 12.3467L16.9997 12.6134L17.9064 12.3467C18.0197 12.3134 18.1464 12.3467 18.233 12.4334C18.3197 12.52 18.353 12.6467 18.3197 12.76L18.053 13.6667L18.3197 14.5734C18.353 14.6934 18.3197 14.82 18.233 14.9C18.173 14.9667 18.0864 15 17.9997 15ZM16.9997 14.04C17.033 14.04 17.0597 14.0467 17.093 14.0534L17.5064 14.1734L17.3864 13.76C17.3664 13.7 17.3664 13.6334 17.3864 13.5734L17.5064 13.16L17.093 13.28C17.033 13.3 16.9664 13.3 16.9064 13.28L16.493 13.16L16.613 13.5734C16.633 13.6334 16.633 13.7 16.613 13.76L16.493 14.1734L16.9064 14.0534C16.9397 14.0467 16.9664 14.04 16.9997 14.04Z" fill="white"/>
</svg>
