<svg width="32" height="32" viewBox="0 0 32 32" fill="none" xmlns="http://www.w3.org/2000/svg">
<path d="M11.5593 30.3332H2.66602C2.11935 30.3332 1.66602 29.8798 1.66602 29.3332V21.3332C1.66602 19.3065 3.30602 17.6665 5.33268 17.6665H11.5593C12.106 17.6665 12.5593 18.1198 12.5593 18.6665V29.3332C12.5593 29.8798 12.106 30.3332 11.5593 30.3332ZM3.66602 28.3332H10.5593V19.6665H5.33268C4.41268 19.6665 3.66602 20.4132 3.66602 21.3332V28.3332Z" fill="white"/>
<path d="M20.4402 30.3335H11.5469C11.0002 30.3335 10.5469 29.8802 10.5469 29.3335V16.0002C10.5469 13.9735 12.1869 12.3335 14.2135 12.3335H17.7735C19.8002 12.3335 21.4402 13.9735 21.4402 16.0002V29.3335C21.4402 29.8802 21.0002 30.3335 20.4402 30.3335ZM12.5602 28.3335H19.4535V16.0002C19.4535 15.0802 18.7069 14.3335 17.7869 14.3335H14.2269C13.3069 14.3335 12.5602 15.0802 12.5602 16.0002V28.3335Z" fill="white"/>
<path d="M29.3328 30.3332H20.4395C19.8928 30.3332 19.4395 29.8798 19.4395 29.3332V22.6665C19.4395 22.1198 19.8928 21.6665 20.4395 21.6665H26.6661C28.6928 21.6665 30.3328 23.3065 30.3328 25.3332V29.3332C30.3328 29.8798 29.8795 30.3332 29.3328 30.3332ZM21.4395 28.3332H28.3328V25.3332C28.3328 24.4132 27.5861 23.6665 26.6661 23.6665H21.4395V28.3332Z" fill="white"/>
<path d="M18.2659 11.1335C17.9459 11.1335 17.5459 11.0401 17.0925 10.7735L15.9992 10.1201L14.9192 10.7601C13.8259 11.4135 13.1059 11.0268 12.8392 10.8401C12.5725 10.6535 11.9992 10.0668 12.2792 8.84014L12.5325 7.73345L11.6259 6.8268C11.0659 6.2668 10.8659 5.60012 11.0659 4.98679C11.2659 4.37346 11.8125 3.94678 12.5859 3.81345L13.7459 3.61346L14.3992 2.30682C15.1192 0.88015 16.8659 0.88015 17.5725 2.30682L18.2259 3.61346L19.3859 3.81345C20.1592 3.94678 20.7192 4.37346 20.9059 4.98679C21.1059 5.60012 20.8925 6.2668 20.3459 6.8268L19.4392 7.73345L19.6925 8.84014C19.9725 10.0801 19.3992 10.6535 19.1325 10.8535C19.0125 10.9602 18.7059 11.1335 18.2659 11.1335ZM15.9992 8.10678C16.3192 8.10678 16.6392 8.18682 16.9059 8.34682L17.6525 8.7868L17.4925 8.06679C17.3592 7.50679 17.5592 6.8268 17.9725 6.41347L18.6525 5.73345L17.8125 5.58681C17.2792 5.49347 16.7592 5.1068 16.5192 4.6268L15.9992 3.6268L15.4925 4.6268C15.2525 5.1068 14.7325 5.49347 14.1992 5.58681L13.3592 5.72015L14.0392 6.40012C14.4525 6.81345 14.6392 7.49348 14.5192 8.05348L14.3592 8.77345L15.1059 8.33347C15.3592 8.17347 15.6792 8.10678 15.9992 8.10678Z" fill="white"/>
</svg>
