<svg width="24" height="24" viewBox="0 0 24 24" fill="none" xmlns="http://www.w3.org/2000/svg">
<path d="M9.57043 18.2916C9.38043 18.2916 9.19043 18.2216 9.04043 18.0716L2.97043 12.0016C2.68043 11.7116 2.68043 11.2316 2.97043 10.9416L9.04043 4.87155C9.33043 4.58155 9.81043 4.58155 10.1004 4.87155C10.3904 5.16155 9.86043 5.68156 9.57043 5.97156L4 11.4716L9.57043 16.9716C9.86043 17.2616 10.3904 17.7816 10.1004 18.0716C9.96043 18.2216 9.76043 18.2916 9.57043 18.2916Z" fill="#292D32"/>
<path d="M20.58 12H3.75C3.34 12 3 11.7733 3 11.5C3 11.2267 3.34 11 3.75 11H20.58C20.99 11 21.33 11.2267 21.33 11.5C21.33 11.7733 20.99 12 20.58 12Z" fill="#292D32"/>
</svg>
