<svg width="32" height="32" viewBox="0 0 32 32" fill="none" xmlns="http://www.w3.org/2000/svg">
<path d="M12.2124 15.4932C12.1724 15.4932 12.1458 15.4932 12.1058 15.4932C12.0391 15.4798 11.9458 15.4798 11.8658 15.4932C7.9991 15.3732 5.0791 12.3332 5.0791 8.5865C5.0791 4.77317 8.18577 1.6665 11.9991 1.6665C15.8124 1.6665 18.9191 4.77317 18.9191 8.5865C18.9058 12.3332 15.9724 15.3732 12.2524 15.4932C12.2391 15.4932 12.2258 15.4932 12.2124 15.4932ZM11.9991 3.6665C9.29243 3.6665 7.0791 5.87984 7.0791 8.5865C7.0791 11.2532 9.1591 13.3998 11.8124 13.4932C11.8924 13.4798 12.0658 13.4798 12.2391 13.4932C14.8524 13.3732 16.9058 11.2265 16.9191 8.5865C16.9191 5.87984 14.7058 3.6665 11.9991 3.6665Z" fill="white"/>
<path d="M22.0532 15.6668C22.0132 15.6668 21.9732 15.6668 21.9332 15.6535C21.3865 15.7068 20.8265 15.3202 20.7732 14.7735C20.7198 14.2268 21.0532 13.7335 21.5998 13.6668C21.7598 13.6535 21.9332 13.6535 22.0798 13.6535C24.0265 13.5468 25.5465 11.9468 25.5465 9.98683C25.5465 7.96016 23.9065 6.32016 21.8798 6.32016C21.3332 6.3335 20.8798 5.88016 20.8798 5.3335C20.8798 4.78683 21.3332 4.3335 21.8798 4.3335C24.9998 4.3335 27.5465 6.88016 27.5465 10.0002C27.5465 13.0668 25.1465 15.5468 22.0932 15.6668C22.0798 15.6668 22.0665 15.6668 22.0532 15.6668Z" fill="white"/>
<path d="M12.2261 30.0668C9.61281 30.0668 6.98615 29.4002 4.99948 28.0668C3.14615 26.8402 2.13281 25.1602 2.13281 23.3335C2.13281 21.5068 3.14615 19.8135 4.99948 18.5735C8.99948 15.9202 15.4795 15.9202 19.4528 18.5735C21.2928 19.8002 22.3195 21.4802 22.3195 23.3068C22.3195 25.1335 21.3061 26.8268 19.4528 28.0668C17.4528 29.4002 14.8395 30.0668 12.2261 30.0668ZM6.10615 20.2535C4.82615 21.1068 4.13281 22.2002 4.13281 23.3468C4.13281 24.4802 4.83948 25.5735 6.10615 26.4135C9.42615 28.6402 15.0261 28.6402 18.3461 26.4135C19.6261 25.5602 20.3195 24.4668 20.3195 23.3202C20.3195 22.1868 19.6128 21.0935 18.3461 20.2535C15.0261 18.0402 9.42615 18.0402 6.10615 20.2535Z" fill="white"/>
<path d="M24.4526 27.6667C23.9859 27.6667 23.5726 27.3467 23.4792 26.8667C23.3726 26.32 23.7192 25.8 24.2526 25.68C25.0926 25.5067 25.8659 25.1734 26.4659 24.7067C27.2259 24.1334 27.6392 23.4134 27.6392 22.6534C27.6392 21.8934 27.2259 21.1734 26.4792 20.6134C25.8926 20.16 25.1592 19.84 24.2926 19.64C23.7592 19.52 23.4126 18.9867 23.5326 18.44C23.6526 17.9067 24.1859 17.56 24.7326 17.68C25.8792 17.9334 26.8792 18.3867 27.6926 19.0134C28.9326 19.9467 29.6392 21.2667 29.6392 22.6534C29.6392 24.04 28.9192 25.36 27.6792 26.3067C26.8526 26.9467 25.8126 27.4134 24.6659 27.64C24.5859 27.6667 24.5192 27.6667 24.4526 27.6667Z" fill="white"/>
</svg>
