<svg width="32" height="32" viewBox="0 0 32 32" fill="none" xmlns="http://www.w3.org/2000/svg">
<path d="M23.7203 30.3331H8.28033C4.62699 30.3331 1.66699 27.3598 1.66699 23.7065V13.8265C1.66699 12.0131 2.78699 9.73314 4.22699 8.61314L11.4137 3.01314C13.5737 1.33314 17.027 1.25314 19.267 2.82647L27.507 8.5998C29.0937 9.70647 30.3337 12.0798 30.3337 14.0131V23.7198C30.3337 27.3598 27.3737 30.3331 23.7203 30.3331ZM12.6403 4.58647L5.45366 10.1865C4.50699 10.9331 3.66699 12.6265 3.66699 13.8265V23.7065C3.66699 26.2531 5.73366 28.3331 8.28033 28.3331H23.7203C26.267 28.3331 28.3337 26.2665 28.3337 23.7198V14.0131C28.3337 12.7331 27.4137 10.9598 26.3603 10.2398L18.1203 4.46647C16.6003 3.3998 14.0937 3.45314 12.6403 4.58647Z" fill="white"/>
<path d="M16 25C15.4533 25 15 24.5467 15 24V20C15 19.4533 15.4533 19 16 19C16.5467 19 17 19.4533 17 20V24C17 24.5467 16.5467 25 16 25Z" fill="white"/>
</svg>
