<svg width="215" height="47" viewBox="0 0 215 47" fill="none" xmlns="http://www.w3.org/2000/svg">
<path d="M32.403 5.64379H6.54078V19.5743H29.1299V25.2234H6.54078V40.5333H32.403V46.1823H0V0H32.403V5.64379Z" fill="white"/>
<path d="M88.3981 46.1823H80.9124L61.4062 0H68.5171L84.5603 38.9644L99.7218 0H106.833L88.3981 46.1823Z" fill="white"/>
<path d="M143.703 0V46.1823H137.162V0H143.703Z" fill="white"/>
<path d="M176.416 0H191.578C205.103 0 214.668 9.53971 214.668 23.0912C214.668 36.6426 205.103 46.1823 191.578 46.1823H176.416V0ZM208.191 23.0912C208.191 12.7354 201.46 5.71223 191.519 5.71223H182.962V40.4754H191.519C201.46 40.4701 208.191 33.4417 208.191 23.0912Z" fill="white"/>
</svg>
