<svg width="1335" height="834" viewBox="0 0 1335 834" fill="none" xmlns="http://www.w3.org/2000/svg">
<g filter="url(#filter0_f_1278_1124)">
<path d="M585.572 847.451L585.406 847.441C581.081 750.765 542.643 646.683 474.026 577.772C401.244 504.679 304.473 464.419 201.55 464.419C137.031 464.419 74.9687 480.234 19.693 510.017C108.825 417.116 233.941 359.337 372.507 359.337C643.085 359.337 862.443 579.653 862.443 851.403C862.443 928.222 800.42 990.5 723.943 990.5C653.119 990.5 594.737 937.074 586.498 868.179L586.497 868.175C585.826 862.685 585.443 857.073 585.443 851.403C585.443 850.621 585.475 849.896 585.509 849.137C585.533 848.603 585.557 848.052 585.572 847.451ZM154.9 334.152L154.899 334.153C133.553 343.235 112.89 353.576 92.9875 365.118C211.353 254.065 370.26 186.094 545.013 186.094C910.883 186.094 1207.46 483.955 1207.42 851.402C1207.42 928.222 1145.4 990.5 1068.92 990.5C997.491 990.5 937.004 936.376 931.452 866.52C931.069 861.552 930.972 856.572 930.972 851.435C930.972 848.882 931.044 846.334 931.117 843.778L931.119 843.711C931.19 841.185 931.263 838.649 931.263 836.134V836.114L931.262 836.094C929.417 765.723 914.722 697.429 887.534 632.841L886.152 633.423L887.534 632.841C859.375 565.979 819.078 505.941 767.777 454.422C716.477 402.902 656.694 362.432 590.114 334.152C521.17 304.864 447.952 290.009 372.507 290.009C297.093 290.009 223.876 304.864 154.9 334.152ZM260.779 175.79L260.779 175.79C226.17 190.504 193.022 207.738 161.378 227.386C309.068 94.4099 504.188 13.5 718.133 13.5C1177.88 13.5 1550.79 386.963 1552.44 848.328C1552.44 849.349 1552.47 850.397 1552.5 851.418L1552.5 851.419V851.42V851.421V851.422V851.424V851.425V851.426V851.427V851.428V851.43V851.431V851.432V851.433V851.434V851.436V851.437V851.438V851.439V851.441V851.442V851.443V851.444V851.445V851.447V851.448V851.449V851.45V851.452V851.453V851.454V851.455V851.457V851.458V851.459V851.461V851.462V851.463V851.464V851.466V851.467V851.468V851.469V851.471V851.472V851.473V851.475V851.476V851.477V851.479V851.48V851.481V851.482V851.484V851.485V851.486V851.488V851.489V851.49V851.492V851.493V851.494V851.496V851.497V851.498V851.5V851.501V851.502V851.504V851.505V851.506V851.508V851.509V851.51V851.512V851.513V851.514V851.516V851.517V851.518V851.52V851.521V851.523V851.524V851.525V851.527V851.528V851.529V851.531V851.532V851.534V851.535V851.536V851.538V851.539V851.541V851.542V851.543V851.545V851.546V851.548V851.549V851.55V851.552V851.553V851.555V851.556V851.557V851.559V851.56V851.562V851.563V851.564V851.566V851.567V851.569V851.57V851.572V851.573V851.574V851.576V851.577V851.579V851.58V851.582V851.583V851.584V851.586V851.587V851.589V851.59V851.592V851.593V851.595V851.596V851.597V851.599V851.6V851.602V851.603V851.605V851.606V851.608V851.609V851.611V851.612V851.614V851.615V851.616V851.618V851.619V851.621V851.622V851.624V851.625V851.627V851.628V851.63V851.631V851.633V851.634V851.636V851.637V851.639V851.64V851.642V851.643V851.644V851.646V851.647V851.649V851.65V851.652V851.653V851.655V851.656V851.658V851.659V851.661V851.662V851.664V851.665V851.667V851.668V851.67V851.671V851.673V851.674V851.676V851.677V851.679V851.68V851.682V851.683V851.685V851.686V851.688V851.689V851.691V851.692V851.694V851.695V851.697V851.698V851.7V851.701V851.703V851.704V851.706V851.708V851.709V851.711V851.712V851.714V851.715V851.717V851.718V851.72V851.721V851.723V851.724V851.726V851.727V851.729V851.73V851.732V851.733V851.735V851.736V851.738V851.739V851.741V851.742V851.744V851.745V851.747V851.748V851.75V851.752V851.753V851.755C1552.31 928.414 1490.38 990.5 1414 990.5C1337.62 990.5 1275.69 928.414 1275.5 851.755L1275.5 850.259H1275.17C1275.17 850.128 1275.16 849.997 1275.16 849.867L1275.16 849.839C1275.15 849.327 1275.15 848.828 1275.15 848.323V848.317C1274.72 750.445 1255.45 655.458 1217.76 565.962L1216.38 566.545L1217.76 565.962C1180.98 478.644 1128.32 400.225 1061.3 332.919C994.282 265.579 916.196 212.725 829.247 175.79C739.192 137.522 643.539 118.128 545.013 118.128C446.487 118.128 350.835 137.522 260.779 175.79ZM340.05 851.403C340.05 928.23 278.035 990.5 201.55 990.5C125.065 990.5 63.0503 928.23 63.0503 851.403C63.0503 774.575 125.065 712.305 201.55 712.305C278.035 712.305 340.05 774.575 340.05 851.403Z" stroke="white" stroke-width="3"/>
</g>
<defs>
<filter id="filter0_f_1278_1124" x="0" y="0" width="1566" height="1004" filterUnits="userSpaceOnUse" color-interpolation-filters="sRGB">
<feFlood flood-opacity="0" result="BackgroundImageFix"/>
<feBlend mode="normal" in="SourceGraphic" in2="BackgroundImageFix" result="shape"/>
<feGaussianBlur stdDeviation="6" result="effect1_foregroundBlur_1278_1124"/>
</filter>
</defs>
</svg>
