<svg width="315" height="326" viewBox="0 0 315 326" fill="none" xmlns="http://www.w3.org/2000/svg">
<path d="M37.2066 218.464C52.096 218.464 64.1662 206.339 64.1662 191.382C64.1662 176.425 52.096 164.3 37.2066 164.3C22.3172 164.3 10.2469 176.425 10.2469 191.382C10.2469 206.339 22.3172 218.464 37.2066 218.464Z" fill="white"/>
<path d="M70.1275 96.3102C42.6954 96.3102 17.9923 108.037 0.705078 126.777C11.7077 120.482 24.1961 117.129 37.2066 117.129C56.9492 117.129 75.5107 124.854 89.4723 138.879C102.663 152.129 110.048 172.18 110.844 190.789C110.85 190.733 110.862 190.676 110.868 190.614C110.862 190.87 110.844 191.126 110.844 191.382C110.844 192.487 110.918 193.58 111.049 194.648C112.652 208.061 124.016 218.464 137.803 218.464C152.691 218.464 164.763 206.337 164.763 191.382C164.763 138.879 122.393 96.3102 70.1275 96.3102Z" fill="white"/>
<path d="M103.347 62.9398C68.704 62.9398 37.2874 76.7838 14.2626 99.2638C18.7507 96.5162 23.4501 94.0934 28.336 92.014C41.5828 86.3877 55.6438 83.534 70.1275 83.534C84.6175 83.534 98.6785 86.3877 111.919 92.014C124.706 97.4467 136.187 105.221 146.04 115.118C155.892 125.016 163.632 136.549 169.04 149.394C174.261 161.802 177.083 174.922 177.438 188.441C177.438 189.409 177.382 190.395 177.382 191.388C177.382 192.381 177.4 193.349 177.475 194.317C178.557 207.93 190.336 218.464 204.236 218.464C219.124 218.464 231.195 206.337 231.195 191.382C231.202 120.445 173.963 62.9398 103.347 62.9398Z" fill="white"/>
<path d="M297.634 190.789C297.317 101.762 225.377 29.6943 136.684 29.6943C94.234 29.6943 55.6251 46.2109 26.8628 73.1869C33.769 68.6722 41.0606 64.7695 48.7252 61.5098C66.0311 54.1539 84.4124 50.4259 103.347 50.4259C122.281 50.4259 140.663 54.1539 157.969 61.5098C174.678 68.6098 189.684 78.7695 202.564 91.7143C215.444 104.653 225.564 119.727 232.631 136.512C239.873 153.715 243.578 171.974 243.659 190.789C243.659 190.989 243.665 191.182 243.665 191.382C243.665 191.407 243.665 191.432 243.665 191.451H243.727C243.765 206.375 255.818 218.464 270.687 218.464C285.556 218.464 297.609 206.375 297.647 191.451C297.647 191.426 297.647 191.401 297.647 191.382C297.64 191.182 297.634 190.982 297.634 190.789Z" fill="white"/>
<path d="M65.5327 278.24H35.146V294.652H61.6871V301.308H35.146V319.345H65.5327V326H27.4609V271.591H65.5327V278.24Z" fill="white"/>
<path d="M131.325 326H122.53L99.6113 271.591H107.966L126.816 317.497L144.63 271.591H152.985L131.325 326Z" fill="white"/>
<path d="M196.304 271.591V326H188.619V271.591H196.304Z" fill="white"/>
<path d="M234.742 271.591H252.556C268.447 271.591 279.686 282.83 279.686 298.796C279.686 314.761 268.447 326 252.556 326H234.742V271.591ZM272.076 298.796C272.076 286.595 264.167 278.321 252.488 278.321H242.433V319.277H252.488C264.167 319.27 272.076 310.99 272.076 298.796Z" fill="white"/>
</svg>
