<svg width="155" height="25" viewBox="0 0 155 25" fill="none" xmlns="http://www.w3.org/2000/svg">
<path d="M26.0289 15.499L28.5582 5.98497C28.7658 5.20392 28.0492 4.48737 27.2682 4.69492L17.7542 7.22423C16.9731 7.43178 16.7142 8.40793 17.287 8.98079L18.069 9.76279C16.0652 11.5818 13.2441 12.8646 10.5187 12.8585C7.61285 12.852 4.8785 11.7142 2.81864 9.65433C1.46187 8.29756 0.505755 6.6479 0.00887358 4.84948C-0.124194 8.58907 1.23932 12.3781 4.10105 15.2398C9.51789 20.6567 18.2581 20.7102 23.6937 15.3875L24.2704 15.9642C24.8446 16.5396 25.8214 16.28 26.0289 15.499Z" fill="white"/>
<path d="M55.9719 4.1704V6.08523H46.8923V10.8085H54.8232V12.7233H46.8923V17.9146H55.9719V19.8294H44.5947V4.1704H55.9719Z" fill="white"/>
<path d="M63.6886 10.7446H73.3206V12.9361H63.6886V10.7446Z" fill="white"/>
<path d="M83.1044 15.936C84.1648 17.17 85.6892 18.0423 87.1472 18.0635C89.268 18.0635 90.7481 16.9572 90.7702 15.4041C90.7923 12.085 81.9778 13.6382 82.0219 8.25537C82.044 5.72354 84.2974 3.97892 87.4565 4.00019C89.3785 4.02147 91.3004 5.02144 92.4934 6.42564L90.7923 7.70219C89.9308 6.65968 88.6936 5.9363 87.4565 5.91502C85.6229 5.91502 84.3195 6.89371 84.3195 8.27664C84.2974 11.6595 93.0899 10.2978 93.0678 15.4253C93.0457 18.1274 90.5935 19.9996 87.1251 19.9784C84.9822 19.9571 82.7289 18.8295 81.3813 17.2125L83.1044 15.936Z" fill="white"/>
<path d="M106.81 4.1704V6.08523H101.972V19.8294H99.6742V6.08523H94.814V4.1704H106.81Z" fill="white"/>
<path d="M115.183 18.0635C118.629 18.0635 120.971 15.6168 120.971 11.9999C120.971 8.38302 118.629 5.9363 115.183 5.9363C111.715 5.9363 109.395 8.38302 109.395 11.9999C109.395 15.6168 111.715 18.0635 115.183 18.0635ZM107.075 11.9999C107.075 7.29795 110.433 4.00019 115.183 4.00019C119.911 4.00019 123.268 7.29795 123.268 11.9999C123.268 16.7019 119.911 19.9996 115.183 19.9996C110.433 19.9996 107.075 16.7019 107.075 11.9999Z" fill="white"/>
<path d="M132.913 19.9996C128.207 19.9996 124.894 16.7019 124.894 11.9999C124.894 7.29795 128.207 3.97892 132.913 4.00019C135.144 4.00019 137.155 4.91506 138.591 6.34054L137.088 7.76602C136.094 6.6384 134.548 5.9363 132.913 5.9363C129.511 5.9363 127.213 8.36175 127.213 11.9999C127.213 15.6168 129.511 18.0635 132.913 18.0635C134.658 18.0635 136.072 17.3189 137 16.2976L138.591 17.6593C137.155 19.0848 135.255 20.0209 132.913 19.9996Z" fill="white"/>
<path d="M154.462 4.14912L148.011 11.0425L154.595 19.8294H151.745L146.421 12.7233L143.549 15.8509V19.8294H141.251V4.19168H143.549V12.4893L151.347 4.14912H154.462Z" fill="white"/>
</svg>
